<?xml version="1.0" encoding="utf-8"?>
<svg version="1.1" xmlns="http://www.w3.org/2000/svg" xmlns:xlink="http://www.w3.org/1999/xlink" height="667" width="375">
  <defs>
    <rect id="rect-1" opacity="1" x="0" y="0" width="375" height="667"/>
    <path id="path-2" opacity="1" fill-rule="evenodd" d="M0.5013333333333336,53.25 L375.4986666666667,53.25 "/>
    <path id="path-3" opacity="1" fill-rule="evenodd" d="M0.5013333333333336,341.25 L375.4986666666667,341.25 "/>
    <path id="path-4" opacity="1" fill-rule="evenodd" d="M9.375,346 C8.891750843898055,346 8.5,346.3917508438981 8.5,346.875 L8.5,367.875 C8.5,368.3582491561019 8.891750843898055,368.75 9.375,368.75 C9.858249156101945,368.75 10.25,368.3582491561019 10.25,367.875 L10.25,346.875 C10.25,346.3917508438981 9.858249156101945,346 9.375,346Z"/>
    <path id="path-5" opacity="1" fill-rule="evenodd" d="M402.5,351.5 L402.5,373.5 "/>
    <path id="path-6" opacity="1" fill-rule="evenodd" d="M0.7071067811864623,14.613458669787315 C0.31658248943522493,15.00398296153859 0.3165824894352149,15.637147940409111 0.7071067811864397,16.0276722321604 C1.0976310729376393,16.41819652391166 1.730796051808141,16.418196523911682 2.1213203435593666,16.027672232160445 L9.176017152926454,8.972975422793168 C9.56654144467771,8.5824511310419 9.566541444677712,7.94928615217136 9.176017152926455,7.558761860420092 L2.3243620736930573,0.7071067811865062 C1.9338377819418313,0.3165824894352698 1.3006728030713302,0.3165824894352906 0.9101485113201309,0.7071067811865531 C0.5196242195689132,1.0976310729378338 0.5196242195689438,1.7307960518083485 0.9101485113201992,2.1213203435595913 L7.054696809366987,8.265868641606177 L0.7071067811864623,14.613458669787315Z"/>
    <path id="path-7" opacity="1" fill-rule="evenodd" d="M5.3578297462696695e-17,0.8750000000000001 C2.9777450996726393e-16,1.3582491561019443 0.3917508438980557,1.7499999999999996 0.8749999999999999,1.75 L15.625,1.75 C16.108249156101945,1.75 16.5,1.3582491561019447 16.5,0.8750000000000001 L16.5,0.8749999999999999 C16.5,0.3917508438980556 16.108249156101945,1.0715659492539339e-16 15.625,1.0715659492539339e-16 L0.8749999999999999,0 C0.3917508438980557,3.7003051856695333e-16 2.9777450996726393e-16,0.3917508438980557 5.3578297462696695e-17,0.8749999999999999 L5.3578297462696695e-17,0.8750000000000001Z"/>
    <path id="path-8" opacity="1" fill-rule="evenodd" d="M5.3578297462696695e-17,6.875 C2.9777450996726393e-16,7.3582491561019445 0.3917508438980557,7.75 0.8749999999999999,7.75 L15.625,7.75 C16.108249156101945,7.75 16.5,7.3582491561019445 16.5,6.875 L16.5,6.875 C16.5,6.3917508438980555 16.108249156101945,6 15.625,6 L0.8749999999999999,6 C0.3917508438980557,6 2.9777450996726393e-16,6.3917508438980555 5.3578297462696695e-17,6.875 L5.3578297462696695e-17,6.875Z"/>
    <path id="path-9" opacity="1" fill-rule="evenodd" d="M5.3578297462696695e-17,12.875 C2.9777450996726393e-16,13.358249156101945 0.3917508438980557,13.75 0.8749999999999999,13.75 L15.625,13.75 C16.108249156101945,13.75 16.5,13.358249156101945 16.5,12.875 L16.5,12.875 C16.5,12.391750843898055 16.108249156101945,12 15.625,12 L0.8749999999999999,12 C0.3917508438980557,12 2.9777450996726393e-16,12.391750843898055 5.3578297462696695e-17,12.875 L5.3578297462696695e-17,12.875Z"/>
    <rect id="rect-10" opacity="1" x="9.563927346329859" y="0.6673275858216172" width="12.15217391304347" height="19.6304347826087" rx="0" ry="0"/>
    <mask id="mask-11" maskUnits="userSpaceOnUse" maskContentUnits="userSpaceOnUse" x="-26" y="-377">
      <rect opacity="1" x="-26" y="-377" width="375" height="667" fill="black"/>
      <use xlink:href="#rect-10" fill="white"/>
    </mask>
    <path id="path-12" opacity="1" fill-rule="evenodd" d="M8.746035600835096,1.0227926074991298 C8.642073432530037,0.5879800003902425 8.204337261373002,0.32062936255778246 7.770032026413038,0.4266911305323329 L1.7715697688127978,1.8915767937879036 C0.6404563815346377,2.1678062194947154 -0.07612005344103645,3.2937135337995844 0.14424560707669093,4.44847943112621 L2.8317912453023046,18.531826370210148 C3.0596242020659865,19.725722588612214 4.201976586174804,20.506906951530837 5.383306708930245,20.276650480229513 C5.412578343624579,20.27080484472905 5.412578343624579,20.27080484472905 5.441739472174729,20.26441996116297 L6.860058389331479,19.947017826884686 C7.297564381048483,19.84910942712302 7.573641285683428,19.415984470427812 7.477688197772847,18.978045487859927 C7.381985864483502,18.541250973136595 6.949397279783096,18.265515955797152 6.513034624373775,18.36316849111263 L5.094715707212814,18.680570625391862 C4.768462316161225,18.744382991278016 4.46784326771162,18.538808158931086 4.407887226458011,18.224624943562024 L1.720341588232397,4.1412780044780835 C1.662350624938241,3.8373922420236473 1.8509233709844901,3.5411008435222606 2.148584788689317,3.4684088893889005 L8.147047046289497,2.003523226133331 C8.582583226675872,1.8971608487309035 8.85029242770122,1.4588375980724164 8.746035600835096,1.0227926074991298Z"/>
    <path id="path-13" opacity="1" fill-rule="evenodd" d="M11.18798828125,13.486328125000123 C11.18798828125,13.486328125000123 12.40185546875,12.8710937500002 12.854736328125,13.178710937500123 C13.3076171875,13.486328125000044 14.623779296874998,15.22045898437512 15.62158203125,15.149169921875044 C16.619384765625,15.077880859374964 18.157470703125,12.497802734374925 18.671874999999996,12.130859375000123 C19.186279296874996,11.76391601562532 20.367919921875,12.130859375000153 20.367919921875,12.130859375000153 "/>
    <ellipse id="ellipse-14" opacity="1" rx="1.25" ry="1.25" cx="14.75" cy="9.25"/>
    <path id="path-15" opacity="1" fill-rule="evenodd" d="M3.775583107247285,1.038066449980496 C2.2622772361890586,1.6287759940711553 1.3084998399811996,3.7928371483644496 1.0840156703117736,5.282877800788033 C0.3832034523128175,10.117105745599238 4.196182568001536,14.30598295133919 7.700243657996317,17.059404484414976 C10.81241055568608,19.50454174457555 17.596832622407778,22.879655683277406 21.129486850896914,19.00058084250046 C21.578455190235772,18.522976323410788 22.5147355463563,17.477813640243713 22.60836953296929,16.74408251179349 C22.74127194151687,15.743485021836007 22.390946540632708,15.192680988416702 21.54997187903394,14.54598108403729 C20.905000378565127,14.068376564947616 19.156338164661538,12.65715890791852 18.315251373107927,12.684591935851168 C17.5585984375788,12.713138025163046 16.871377394271626,14.027220946628667 16.393928046393285,14.505949770141802 C16.393928046393285,14.505949770141802 15.627836354879728,15.40871792216285 14.136523649795796,15.539190877629814 C12.645210944711842,15.66966383309681 10.207305341904434,13.622230986213724 8.617556883516954,12.177285309658638 C7.027808425129481,10.732339633103559 6.094776259336756,9.014764453976435 6.2563047361873085,7.819992390250153 C6.400314457966518,6.754800692528707 8.72957369753967,5.2304868013573795 8.057242488080195,4.16217273817705 C7.805387396424604,3.769115911732262 6.4101885271038315,2.3588992866719805 5.73673601809556,1.8812947675823106 C5.373182671886423,1.5991224649021563 4.756692179957102,1.0940568102692576 4.196042405557937,1.0095091176243798 C4.196042405557937,1.0095091176243798 3.8872645423075984,0.9809742713567362 3.775583107247285,1.038066449980496Z"/>
    <path id="path-16" opacity="1" fill-rule="evenodd" d="M0.5000000000000001,2.0000000000000004 C0.49999999999999994,0.8954305003384135 1.3954305003384135,-1.3527075021963558e-16 2.5000000000000004,0 L16.500000000000004,2.4492935982947074e-16 C17.60456949966159,2.4492935982947074e-16 18.500000000000004,0.895430500338414 18.500000000000004,2.000000000000001 L18.500000000000004,5.505859375 L22.38406355999682,3.0783196500019887 C23.05011156638225,2.662039646011097 23.9140625,3.1408824133465716 23.9140625,3.926317954007076 L23.9140625,11.04521300319619 C23.9140625,11.83047379324385 23.050455412467397,12.309345702644682 22.38439365686653,11.893417528422063 L18.500000000000004,9.4677734375 L18.500000000000004,12.5 C18.500000000000004,13.604569499661586 17.60456949966159,14.5 16.500000000000004,14.5 L2.5000000000000004,14.5 C1.3954305003384138,14.5 0.5000000000000002,13.604569499661586 0.5000000000000001,12.5 L0.5000000000000001,2.0000000000000004Z"/>
    <ellipse id="ellipse-17" opacity="1" rx="16" ry="16" cx="16" cy="16"/>
    <ellipse id="ellipse-18" opacity="1" rx="9.5" ry="9.5" cx="10" cy="9.5"/>
    <path id="path-19" opacity="1" fill-rule="evenodd" d="M5.967067658901215,3.8701171875 C4.130872189998627,3.8701171875 1.1121547222137451,2.1920974254608154 1.1121547222137451,2.1920974254608154 C0.8800795078277588,2.063093423843384 0.8270206451416016,1.7524282932281494 1.0031238794326782,1.5537109375 C1.2034235000610352,1.3276901245117188 1.5340535640716553,1.2715808153152466 1.797705054283142,1.4188673496246338 C1.797705054283142,1.4188673496246338 4.395526349544525,2.8701171875 5.967067658901215,2.8701171875 C7.545717179775238,2.8701171875 10.426227509975433,0.9390614032745361 10.426227509975433,0.9390614032745361 C10.668374001979828,0.7767298221588135 10.994445741176605,0.8265161514282227 11.17711728811264,1.0537109375 C11.35000604391098,1.2687381505966187 11.29947942495346,1.5860259532928467 11.06835263967514,1.7367156744003296 C11.06835263967514,1.7367156744003296 10.583739221096039,2.052673101425171 9.88325971364975,2.4414029121398926 C9.980713784694672,3.141526222229004 10.110600411891937,4.720251560211182 9.365721642971039,5.052677631378174 C8.541976869106293,5.420299530029297 7.2661256194114685,4.116722583770752 6.912644803524017,3.730013132095337 C6.574195325374603,3.8179824352264404 6.252998769283295,3.8701171875 5.967067658901215,3.8701171875Z"/>
    <ellipse id="ellipse-20" opacity="1" rx="1" ry="1.5" cx="1.5" cy="2"/>
    <ellipse id="ellipse-21" opacity="1" rx="1" ry="1.5" cx="10" cy="2"/>
  </defs>
  <g>
    <use xlink:href="#rect-1" fill="rgb(255,255,255)" fill-opacity="1"/>
    <g opacity="1">
      <use xlink:href="#path-2" fill-opacity="0" stroke="rgb(242,240,240)" stroke-opacity="1" stroke-width="0.5" stroke-linecap="square" stroke-linejoin="miter"/>
    </g>
    <g opacity="1">
      <use xlink:href="#path-3" fill-opacity="0" stroke="rgb(242,240,240)" stroke-opacity="1" stroke-width="0.5" stroke-linecap="square" stroke-linejoin="miter"/>
    </g>
    <g opacity="1">
      <use xlink:href="#path-4" fill="rgb(233,39,84)" fill-opacity="1"/>
    </g>
    <g opacity="1">
      <use xlink:href="#path-5" fill-opacity="0" stroke="rgb(140,99,109)" stroke-opacity="1" stroke-width="1" stroke-linecap="square" stroke-linejoin="miter"/>
    </g>
    <g transform="translate(350, 26)" opacity="1">
      <g opacity="1">
        <use xlink:href="#path-6" fill="rgb(14,173,255)" fill-opacity="1"/>
      </g>
    </g>
    <g transform="translate(12, 28)" opacity="1">
      <g opacity="1">
        <g opacity="1">
          <use xlink:href="#path-7" fill="rgb(14,173,255)" fill-opacity="1"/>
        </g>
        <g opacity="1">
          <use xlink:href="#path-8" fill="rgb(14,173,255)" fill-opacity="1"/>
        </g>
        <g opacity="1">
          <use xlink:href="#path-9" fill="rgb(14,173,255)" fill-opacity="1"/>
        </g>
      </g>
    </g>
    <g transform="translate(26, 377)" opacity="1">
      <g opacity="1">
        <g transform="translate(15.640014302851593, 10.482544977125967) rotate(7.00000250294917) translate(-15.640014302851593, -10.482544977125967)" opacity="1">
          <use xlink:href="#rect-10" fill-opacity="0" stroke="rgb(206,212,218)" stroke-opacity="1" stroke-width="3.5" mask="url(#mask-11)"/>
        </g>
        <g opacity="1">
          <use xlink:href="#path-12" fill="rgb(206,212,218)" fill-opacity="1"/>
        </g>
        <g opacity="1">
          <use xlink:href="#path-13" fill-opacity="0" stroke="rgb(206,212,218)" stroke-opacity="1" stroke-width="1"/>
        </g>
        <g opacity="1">
          <use xlink:href="#ellipse-14" fill="rgb(206,212,218)" fill-opacity="1"/>
        </g>
      </g>
    </g>
    <g transform="translate(101, 377)" opacity="1">
      <g transform="translate(11.817882215359145, 10.882542910667125) rotate(5.000001787820835) translate(-11.817882215359145, -10.882542910667125)" opacity="1">
        <use xlink:href="#path-15" fill="rgb(206,212,218)" fill-opacity="1"/>
      </g>
    </g>
    <g transform="translate(254, 380)" opacity="1">
      <g opacity="1">
        <use xlink:href="#path-16" fill="rgb(206,212,218)" fill-opacity="1"/>
      </g>
    </g>
    <g transform="translate(175, 372)" opacity="1">
      <g opacity="1">
        <use xlink:href="#ellipse-17" fill-opacity="0" stroke="rgb(206,212,218)" stroke-opacity="1" stroke-width="4"/>
      </g>
    </g>
    <g transform="translate(327, 377)" opacity="1">
      <g opacity="1">
        <g opacity="1">
          <use xlink:href="#ellipse-18" fill-opacity="0" stroke="rgb(206,212,218)" stroke-opacity="1" stroke-width="1.5"/>
        </g>
        <g opacity="1">
          <g opacity="1">
            <g opacity="1">
              <use xlink:href="#path-19" fill="rgb(206,212,218)" fill-opacity="1"/>
            </g>
          </g>
          <g opacity="1">
            <use xlink:href="#ellipse-20" fill="rgb(206,212,218)" fill-opacity="1"/>
          </g>
          <g opacity="1">
            <use xlink:href="#ellipse-21" fill="rgb(206,212,218)" fill-opacity="1"/>
          </g>
        </g>
      </g>
    </g>
  </g>
</svg>